<svg viewBox="0 0 10.9219 10" xmlns="http://www.w3.org/2000/svg" xmlns:xlink="http://www.w3.org/1999/xlink" width="10.921875" height="10.000000" fill="none">
	<rect id="star (1) 5" width="10.921928" height="10.000000" x="0.000000" y="0.000000" fill="rgb(255,255,255)" fill-opacity="0" />
	<path id="Vector" d="M10.8934 3.83573C10.8215 3.63325 10.6253 3.48989 10.3941 3.47074L7.2413 3.20866L5.99529 0.537725C5.90329 0.341494 5.69397 0.214844 5.46098 0.214844C5.22799 0.214844 5.01858 0.341494 4.92717 0.537725L3.68115 3.20866L0.527813 3.47074C0.296658 3.49027 0.100918 3.63363 0.0285885 3.83573C-0.0433245 4.03822 0.0230888 4.26032 0.197913 4.4007L2.58121 6.3141L1.87849 9.14786C1.82708 9.35622 1.91541 9.57168 2.10423 9.69665C2.20573 9.76417 2.32497 9.79789 2.44463 9.79789C2.54746 9.79789 2.65037 9.77287 2.74228 9.72251L5.46098 8.23415L8.17917 9.72251C8.37858 9.83161 8.62932 9.82162 8.81773 9.69665C9.00655 9.57168 9.09488 9.35622 9.04346 9.14786L8.34075 6.3141L10.724 4.4007C10.8988 4.26032 10.9653 4.03868 10.8934 3.83573Z" fill="rgb(245,195,75)" fill-rule="nonzero" />
</svg>
